<?xml version="1.0" encoding="UTF-8" standalone="no"?>
<svg xmlns:dc="http://purl.org/dc/elements/1.1/" xmlns:cc="http://creativecommons.org/ns#" xmlns:rdf="http://www.w3.org/1999/02/22-rdf-syntax-ns#" xmlns:svg="http://www.w3.org/2000/svg" xmlns="http://www.w3.org/2000/svg" width="58.666798mm" height="21.814116mm" viewBox="0 0 58.666797 21.814116" version="1.1" id="svg8">
  <defs id="defs2">
    <clipPath clipPathUnits="userSpaceOnUse" id="clipPath849">
      <path d="M 0,420.945 H 595.275 V 172.914 H 0 Z" id="path847"/>
    </clipPath>
    <clipPath clipPathUnits="userSpaceOnUse" id="clipPath873">
      <path d="M 0,0 H 595.276 V 841.89 H 0 Z" id="path871"/>
    </clipPath>
    <clipPath clipPathUnits="userSpaceOnUse" id="clipPath893">
      <path d="M 0,0 H 595.276 V 841.89 H 0 Z" id="path891"/>
    </clipPath>
    <clipPath clipPathUnits="userSpaceOnUse" id="clipPath927">
      <path d="M 0,0 H 595.276 V 841.89 H 0 Z" id="path925"/>
    </clipPath>
    <clipPath clipPathUnits="userSpaceOnUse" id="clipPath957">
      <path d="M 0,0 H 595.276 V 841.89 H 0 Z" id="path955"/>
    </clipPath>
    <clipPath clipPathUnits="userSpaceOnUse" id="clipPath1009">
      <path d="M -26.3838,794.565 H 864.832 V 292.817 H -26.3838 Z" id="path1007"/>
    </clipPath>
  </defs>
  <metadata id="metadata5">
    <rdf:RDF>
      <cc:Work rdf:about="">
        <dc:format>image/svg+xml</dc:format>
        <dc:type rdf:resource="http://purl.org/dc/dcmitype/StillImage"/>
        <dc:title/>
      </cc:Work>
    </rdf:RDF>
  </metadata>
  <g id="layer1" transform="translate(-14.077421,-259.10553)">
    <g id="g12255">
      <g id="g867" transform="matrix(0.35277777,0,0,-0.35277777,0.077487,297.0445)">
        <g id="g869" clip-path="url(#clipPath873)">
          <g id="g875" transform="translate(54.1215,85.0159)">
            <path d="M 0,0 10.19,-14.554 H 3.856 l -10.172,14.53 h -5.286 v 5.187 h 10.896 c 2.579,0 4.67,2.091 4.67,4.671 0,2.578 -2.091,4.668 -4.67,4.668 h -10.896 v 5.191 h 10.896 c 5.446,0 9.859,-4.414 9.859,-9.859 C 9.153,4.626 5.116,0.362 0,0" style="fill:#0079bc;fill-opacity:1;fill-rule:nonzero;stroke:none" id="path877"/>
          </g>
          <g id="g879" transform="translate(72.6138,90.1802)">
            <path d="m 0,0 h 9.417 c 2.544,0.041 4.592,2.115 4.592,4.668 0,2.58 -2.091,4.67 -4.671,4.67 H 0 v 5.189 h 9.338 c 5.446,0 9.859,-4.413 9.859,-9.859 0,-2.658 -1.052,-5.071 -2.764,-6.844 2.541,-1.807 4.32,-4.578 4.32,-7.684 0,-5.444 -4.413,-9.858 -9.857,-9.858 H 0 v 5.188 h 10.896 c 2.579,0 4.669,2.092 4.669,4.67 0,2.579 -2.09,4.67 -4.669,4.67 L 9.338,-5.189 0,-5.19 Z" style="fill:#0079bc;fill-opacity:1;fill-rule:nonzero;stroke:none" id="path881"/>
          </g>
        </g>
      </g>
      <g id="g883" transform="matrix(0.35277777,0,0,-0.35277777,37.571873,266.14625)">
        <path d="M 0,0 11.989,-17.123 H 5.655 L -6.334,0 5.655,17.122 h 6.334 z" style="fill:#87888a;fill-opacity:1;fill-rule:nonzero;stroke:none" id="path885"/>
      </g>
      <g id="g887" transform="matrix(0.35277777,0,0,-0.35277777,0.077487,297.0445)">
        <g id="g889" clip-path="url(#clipPath893)">
          <g id="g895" transform="translate(74.7002,55.3145)">
            <path d="m 0,0 h 0.87 c 1.033,0 1.493,-0.459 1.493,-1.472 0,-1.023 -0.481,-1.493 -1.524,-1.493 H 0 Z M -2.086,0.39 V 0.062 c 0.726,-0.102 0.869,-0.174 0.869,-0.44 v -5.503 c 0,-0.276 -0.143,-0.347 -0.869,-0.439 V -6.647 H 0.9 V -6.32 C 0.144,-6.228 0,-6.157 0,-5.881 v 2.527 h 0.235 c 0.614,0 0.87,-0.133 1.136,-0.594 l 1.575,-2.699 h 1.851 v 0.317 c -0.583,0.071 -0.685,0.112 -0.889,0.449 l -0.941,1.576 c -0.42,0.685 -0.778,0.981 -1.33,1.104 1.298,0.204 1.974,0.809 1.974,1.78 0,1.186 -0.921,1.811 -2.68,1.811 z" style="fill:#0079bc;fill-opacity:1;fill-rule:nonzero;stroke:none" id="path897"/>
          </g>
          <g id="g899" transform="translate(82.085,53.6276)">
            <path d="m 0,0 c 0.88,0 1.402,-0.88 1.402,-2.342 0,-1.504 -0.512,-2.353 -1.412,-2.353 -0.87,0 -1.402,0.889 -1.402,2.343 C -1.412,-0.88 -0.88,0 0,0 m -0.01,0.388 c -0.471,0 -1.033,-0.194 -1.473,-0.5 -0.716,-0.502 -1.115,-1.3 -1.115,-2.24 0,-0.859 0.327,-1.586 0.931,-2.098 0.46,-0.378 1.115,-0.634 1.636,-0.634 0.502,0 1.054,0.185 1.504,0.502 0.736,0.5 1.125,1.278 1.125,2.218 0,0.871 -0.327,1.607 -0.94,2.108 -0.471,0.4 -1.116,0.644 -1.668,0.644" style="fill:#0079bc;fill-opacity:1;fill-rule:nonzero;stroke:none" id="path901"/>
          </g>
          <g id="g903" transform="translate(86.9034,51.9807)">
            <path d="m 0,0 c 0,0.808 0.572,1.422 1.34,1.422 0.879,0 1.35,-0.747 1.35,-2.159 0,-1.503 -0.481,-2.281 -1.422,-2.281 -0.654,0 -1.074,0.349 -1.268,1.054 z M 0,4.624 H -0.399 L -1.964,4.112 V 3.805 c 0.634,-0.03 0.818,-0.143 0.818,-0.481 v -6.596 h 0.235 l 0.45,0.429 c 0.727,-0.461 1.125,-0.593 1.78,-0.593 1.565,0 2.557,1.074 2.557,2.761 0,1.605 -0.869,2.71 -2.148,2.71 C 1.053,2.035 0.501,1.728 0,1.074 Z" style="fill:#0079bc;fill-opacity:1;fill-rule:nonzero;stroke:none" id="path905"/>
          </g>
          <g id="g907" transform="translate(95.0553,51.8783)">
            <path d="m 0,0 h -2.271 c 0.143,1.217 0.532,1.749 1.268,1.749 C -0.348,1.749 0,1.217 0,0.225 Z m 0.92,-1.954 c -0.429,-0.623 -0.828,-0.859 -1.493,-0.859 -1.115,0 -1.718,0.768 -1.718,2.21 v 0.215 h 3.528 c -0.03,0.889 -0.173,1.349 -0.552,1.81 -0.388,0.46 -0.951,0.716 -1.626,0.716 -1.483,0 -2.527,-1.135 -2.527,-2.741 0,-1.606 1.085,-2.732 2.629,-2.732 0.921,0 1.637,0.42 2.056,1.218 z" style="fill:#0079bc;fill-opacity:1;fill-rule:nonzero;stroke:none" id="path909"/>
          </g>
          <g id="g911" transform="translate(98.1644,53.9648)">
            <path d="m 0,0 -1.422,-0.511 v -0.307 c 0.614,-0.01 0.808,-0.122 0.808,-0.461 v -3.365 c 0,-0.234 -0.072,-0.275 -0.665,-0.347 v -0.307 h 2.537 v 0.307 c -0.634,0.072 -0.716,0.113 -0.716,0.347 v 2.691 c 0,0.664 0.44,1.218 0.972,1.218 0.102,0 0.173,-0.032 0.235,-0.093 V -1.34 h 0.307 c 0.501,0 0.798,0.256 0.798,0.696 0,0.429 -0.297,0.695 -0.788,0.695 -0.573,0 -1.135,-0.398 -1.606,-1.135 L 0.348,0 Z" style="fill:#0079bc;fill-opacity:1;fill-rule:nonzero;stroke:none" id="path913"/>
          </g>
          <g id="g915" transform="translate(104.4036,49.6896)">
            <path d="m 0,0 c -0.225,-0.449 -0.419,-0.614 -0.716,-0.614 -0.368,0 -0.563,0.246 -0.563,0.706 v 3.641 h 1.32 v 0.471 h -1.32 V 5.626 H -1.657 C -1.821,4.705 -2.158,4.296 -2.854,4.194 L -3.12,4.153 v -0.42 h 0.716 V 0.205 c 0,-0.849 0.481,-1.351 1.31,-1.351 0.685,0 1.125,0.328 1.39,1.034 z" style="fill:#0079bc;fill-opacity:1;fill-rule:nonzero;stroke:none" id="path917"/>
          </g>
        </g>
      </g>
      <path d="m 37.129031,279.02814 h 0.894644 v -0.26705 h -0.894644 z" style="fill:#0079bc;fill-opacity:1;fill-rule:nonzero;stroke:none;stroke-width:0.352778" id="path919"/>
      <g id="g921" transform="matrix(0.35277777,0,0,-0.35277777,0.077487,297.0445)">
        <g id="g923" clip-path="url(#clipPath927)">
          <g id="g929" transform="translate(110.275,52.5951)">
            <path d="M 0,0 V 2.721 H 0.542 C 1.575,2.721 2.045,2.291 2.045,1.35 2.045,0.398 1.585,0 0.491,0 Z m 0,-0.39 h 0.715 c 1.187,0 1.78,-0.52 1.78,-1.554 C 2.495,-3.018 1.912,-3.55 0.767,-3.55 0.184,-3.55 0,-3.457 0,-3.181 Z m 1.575,0.298 c 1.166,0.275 1.688,0.746 1.688,1.534 0,1.084 -0.941,1.667 -2.67,1.667 h -2.68 V 2.782 c 0.726,-0.103 0.87,-0.174 0.87,-0.44 v -5.503 c 0,-0.276 -0.144,-0.347 -0.87,-0.44 v -0.327 h 2.813 c 1.944,0 3.048,0.705 3.048,1.943 0,0.644 -0.307,1.156 -0.91,1.483 -0.358,0.205 -0.686,0.297 -1.289,0.368 z" style="fill:#0079bc;fill-opacity:1;fill-rule:nonzero;stroke:none" id="path931"/>
          </g>
          <g id="g933" transform="translate(117.4451,53.6276)">
            <path d="m 0,0 c 0.88,0 1.401,-0.88 1.401,-2.342 0,-1.504 -0.511,-2.353 -1.412,-2.353 -0.869,0 -1.401,0.889 -1.401,2.343 C -1.412,-0.88 -0.88,0 0,0 m -0.011,0.388 c -0.47,0 -1.032,-0.194 -1.472,-0.5 -0.717,-0.502 -1.115,-1.3 -1.115,-2.24 0,-0.859 0.327,-1.586 0.931,-2.098 0.46,-0.378 1.114,-0.634 1.636,-0.634 0.501,0 1.054,0.185 1.504,0.502 0.736,0.5 1.125,1.278 1.125,2.218 0,0.871 -0.328,1.607 -0.941,2.108 -0.471,0.4 -1.115,0.644 -1.668,0.644" style="fill:#0079bc;fill-opacity:1;fill-rule:nonzero;stroke:none" id="path935"/>
          </g>
          <g id="g937" transform="translate(124.2979,52.5026)">
            <path d="m 0,0 v 1.217 c -0.542,0.205 -1.023,0.296 -1.534,0.296 -1.207,0 -1.933,-0.571 -1.933,-1.523 0,-0.788 0.409,-1.217 1.524,-1.606 0.613,-0.214 0.757,-0.266 0.92,-0.358 0.328,-0.174 0.481,-0.4 0.481,-0.727 0,-0.542 -0.419,-0.859 -1.115,-0.859 -0.736,0 -1.012,0.266 -1.37,1.31 h -0.43 v -1.33 c 0.645,-0.266 1.176,-0.378 1.759,-0.378 1.238,0 2.046,0.654 2.046,1.677 0,0.767 -0.409,1.186 -1.524,1.564 -0.716,0.226 -0.747,0.246 -0.972,0.359 -0.327,0.163 -0.48,0.388 -0.48,0.695 0,0.491 0.357,0.768 0.981,0.768 0.665,0 0.921,-0.226 1.228,-1.105 z" style="fill:#0079bc;fill-opacity:1;fill-rule:nonzero;stroke:none" id="path939"/>
          </g>
          <g id="g941" transform="translate(129.5451,50.0579)">
            <path d="m 0,0 c -0.368,-0.717 -0.787,-0.993 -1.503,-0.993 -1.013,0 -1.524,0.747 -1.524,2.24 0,1.545 0.46,2.323 1.36,2.323 0.327,0 0.542,-0.072 0.747,-0.236 V 2.372 h 0.562 c 0.369,0 0.603,0.215 0.603,0.543 0,0.624 -0.736,1.043 -1.83,1.043 -1.575,0 -2.65,-1.115 -2.65,-2.751 0,-1.607 1.034,-2.722 2.517,-2.722 0.971,0 1.667,0.461 2.056,1.371 z" style="fill:#0079bc;fill-opacity:1;fill-rule:nonzero;stroke:none" id="path943"/>
          </g>
          <g id="g945" transform="translate(131.9487,56.6042)">
            <path d="m 0,0 h -0.399 l -1.575,-0.512 v -0.307 c 0.634,-0.03 0.818,-0.142 0.818,-0.481 v -5.983 c 0,-0.246 -0.051,-0.276 -0.664,-0.347 V -7.937 H 0.624 V -7.63 C 0.072,-7.559 0,-7.518 0,-7.283 v 2.915 c 0,0.604 0.594,1.115 1.299,1.115 0.553,0 0.9,-0.358 0.9,-0.931 v -3.099 c 0,-0.235 -0.081,-0.276 -0.623,-0.347 V -7.937 H 4.02 v 0.307 l -0.164,0.02 c -0.399,0.051 -0.501,0.112 -0.501,0.327 v 3.211 c 0,0.911 -0.593,1.484 -1.545,1.484 -0.726,0 -1.298,-0.307 -1.81,-0.962 z" style="fill:#0079bc;fill-opacity:1;fill-rule:nonzero;stroke:none" id="path947"/>
          </g>
        </g>
      </g>
      <path d="m 48.336428,279.02814 h 0.894997 v -0.26705 h -0.894997 z" style="fill:#0079bc;fill-opacity:1;fill-rule:nonzero;stroke:none;stroke-width:0.352778" id="path949"/>
      <g id="g959" transform="matrix(0.35277777,0,0,-0.35277777,50.187523,278.78966)">
        <path d="m 0,0 v 3.191 c 0,0.276 0.133,0.348 0.87,0.44 V 3.958 H -2.086 V 3.631 c 0.726,-0.102 0.869,-0.175 0.869,-0.44 v -5.503 c 0,-0.276 -0.143,-0.347 -0.869,-0.44 v -0.327 h 2.935 v 0.327 C 0.144,-2.659 0,-2.588 0,-2.312 v 1.739 l 0.818,0.879 1.811,-2.608 c 0.061,-0.091 0.092,-0.153 0.092,-0.204 0,-0.123 -0.143,-0.185 -0.603,-0.246 V -3.079 H 4.92 v 0.327 C 4.429,-2.691 4.276,-2.598 4.01,-2.22 L 1.637,1.186 3.539,3.231 c 0.256,0.266 0.399,0.328 0.88,0.4 V 3.958 H 2.281 V 3.631 C 2.783,3.57 2.977,3.507 2.977,3.375 2.977,3.314 2.925,3.221 2.813,3.099 Z" style="fill:#0079bc;fill-opacity:1;fill-rule:nonzero;stroke:none" id="path961"/>
      </g>
      <g id="g963" transform="matrix(0.35277777,0,0,-0.35277777,52.475358,278.00692)">
        <path d="m 0,0 -1.422,-0.511 v -0.307 c 0.613,-0.01 0.808,-0.122 0.808,-0.461 v -3.365 c 0,-0.234 -0.072,-0.275 -0.665,-0.347 v -0.307 h 2.537 v 0.307 c -0.634,0.072 -0.716,0.113 -0.716,0.347 v 2.691 c 0,0.664 0.44,1.218 0.972,1.218 0.102,0 0.173,-0.032 0.235,-0.093 V -1.34 h 0.307 c 0.501,0 0.798,0.256 0.798,0.696 0,0.429 -0.297,0.695 -0.788,0.695 -0.573,0 -1.135,-0.398 -1.606,-1.135 L 0.348,0 Z" style="fill:#0079bc;fill-opacity:1;fill-rule:nonzero;stroke:none" id="path965"/>
      </g>
      <g id="g967" transform="matrix(0.35277777,0,0,-0.35277777,54.651079,279.3636)">
        <path d="m 0,0 c 0,-0.512 -0.44,-0.951 -0.951,-0.951 -0.511,0 -0.798,0.337 -0.798,0.92 0,0.809 0.43,1.095 1.749,1.156 z M 1.81,-0.552 C 1.658,-0.9 1.586,-0.971 1.402,-0.971 c -0.185,0 -0.297,0.132 -0.297,0.368 v 2.874 c 0,1.115 -0.583,1.626 -1.841,1.626 -1.156,0 -1.964,-0.42 -1.964,-1.013 0,-0.307 0.205,-0.46 0.614,-0.46 h 0.48 V 3.253 C -1.473,3.416 -1.217,3.508 -0.9,3.508 -0.265,3.508 0,3.12 0,2.209 V 1.473 C -0.91,1.432 -1.36,1.35 -1.851,1.156 -2.567,0.859 -2.925,0.41 -2.925,-0.205 c 0,-0.788 0.593,-1.329 1.463,-1.329 0.624,0 1.094,0.255 1.483,0.797 0.143,-0.532 0.48,-0.776 1.043,-0.776 0.563,0 0.89,0.266 1.074,0.859 z" style="fill:#0079bc;fill-opacity:1;fill-rule:nonzero;stroke:none" id="path969"/>
      </g>
      <g id="g971" transform="matrix(0.35277777,0,0,-0.35277777,55.989906,278.00692)">
        <path d="m 0,0 -1.422,-0.511 v -0.307 c 0.613,-0.01 0.808,-0.122 0.808,-0.461 v -3.365 c 0,-0.234 -0.072,-0.275 -0.665,-0.347 v -0.307 h 2.445 v 0.307 c -0.552,0.072 -0.624,0.113 -0.624,0.347 v 2.916 c 0,0.603 0.593,1.115 1.299,1.115 0.552,0 0.9,-0.358 0.9,-0.931 v -3.1 c 0,-0.234 -0.082,-0.275 -0.624,-0.347 v -0.307 h 2.445 v 0.307 l -0.164,0.02 c -0.399,0.052 -0.501,0.113 -0.501,0.327 v 3.212 c 0,0.911 -0.593,1.483 -1.545,1.483 -0.767,0 -1.37,-0.337 -1.902,-1.074 L 0.348,0 Z" style="fill:#0079bc;fill-opacity:1;fill-rule:nonzero;stroke:none" id="path973"/>
      </g>
      <g id="g975" transform="matrix(0.35277777,0,0,-0.35277777,57.696715,277.36472)">
        <path d="m 0,0 c 0.634,-0.03 0.818,-0.142 0.818,-0.481 v -5.983 c 0,-0.246 -0.051,-0.276 -0.665,-0.348 v -0.306 h 2.445 v 0.306 C 2.045,-6.74 1.974,-6.699 1.974,-6.464 v 1.299 l 0.614,0.604 1.248,-1.852 C 3.887,-6.484 3.918,-6.566 3.918,-6.618 3.918,-6.72 3.825,-6.75 3.437,-6.812 V -7.118 H 5.85 v 0.306 C 5.451,-6.75 5.339,-6.689 5.165,-6.444 l -1.81,2.63 1.309,1.288 c 0.194,0.195 0.379,0.266 0.798,0.327 v 0.307 H 3.498 v -0.307 c 0.368,-0.051 0.521,-0.122 0.521,-0.246 0,-0.061 -0.061,-0.163 -0.173,-0.276 L 1.974,-4.622 V 0.819 H 1.575 L 0,0.307 Z" style="fill:#0079bc;fill-opacity:1;fill-rule:nonzero;stroke:none" id="path977"/>
      </g>
      <g id="g979" transform="matrix(0.35277777,0,0,-0.35277777,61.066801,278.74299)">
        <path d="m 0,0 h -2.271 c 0.143,1.217 0.532,1.749 1.269,1.749 C -0.348,1.749 0,1.217 0,0.225 Z m 0.921,-1.954 c -0.43,-0.623 -0.829,-0.859 -1.493,-0.859 -1.115,0 -1.719,0.768 -1.719,2.21 v 0.215 h 3.529 c -0.031,0.889 -0.174,1.349 -0.552,1.81 -0.389,0.46 -0.952,0.716 -1.627,0.716 -1.483,0 -2.526,-1.135 -2.526,-2.741 0,-1.606 1.084,-2.732 2.629,-2.732 0.92,0 1.636,0.42 2.055,1.218 z" style="fill:#0079bc;fill-opacity:1;fill-rule:nonzero;stroke:none" id="path981"/>
      </g>
      <g id="g983" transform="matrix(0.35277777,0,0,-0.35277777,62.199924,278.00692)">
        <path d="m 0,0 -1.422,-0.511 v -0.307 c 0.614,-0.01 0.808,-0.122 0.808,-0.461 v -3.365 c 0,-0.234 -0.071,-0.275 -0.665,-0.347 v -0.307 h 2.445 v 0.307 c -0.552,0.072 -0.624,0.113 -0.624,0.347 v 2.916 c 0,0.603 0.593,1.115 1.299,1.115 0.553,0 0.9,-0.358 0.9,-0.931 v -3.1 c 0,-0.234 -0.081,-0.275 -0.624,-0.347 v -0.307 h 2.445 v 0.307 l -0.164,0.02 c -0.399,0.052 -0.501,0.113 -0.501,0.327 v 3.212 c 0,0.911 -0.593,1.483 -1.545,1.483 -0.767,0 -1.37,-0.337 -1.902,-1.074 L 0.348,0 Z" style="fill:#0079bc;fill-opacity:1;fill-rule:nonzero;stroke:none" id="path985"/>
      </g>
      <g id="g987" transform="matrix(0.35277777,0,0,-0.35277777,64.603187,277.0758)">
        <path d="m 0,0 h -0.399 l -1.575,-0.512 v -0.307 c 0.634,-0.03 0.818,-0.142 0.818,-0.481 v -5.983 c 0,-0.246 -0.051,-0.276 -0.665,-0.347 V -7.937 H 0.624 V -7.63 C 0.072,-7.559 0,-7.518 0,-7.283 v 2.915 c 0,0.604 0.593,1.115 1.299,1.115 0.552,0 0.9,-0.358 0.9,-0.931 v -3.099 c 0,-0.235 -0.082,-0.276 -0.624,-0.347 V -7.937 H 4.02 v 0.307 l -0.164,0.02 c -0.399,0.051 -0.501,0.112 -0.501,0.327 v 3.211 c 0,0.911 -0.593,1.484 -1.545,1.484 -0.726,0 -1.299,-0.307 -1.81,-0.962 z" style="fill:#0079bc;fill-opacity:1;fill-rule:nonzero;stroke:none" id="path989"/>
      </g>
      <g id="g991" transform="matrix(0.35277777,0,0,-0.35277777,67.266059,279.3636)">
        <path d="m 0,0 c 0,-0.512 -0.44,-0.951 -0.952,-0.951 -0.511,0 -0.797,0.337 -0.797,0.92 0,0.809 0.43,1.095 1.749,1.156 z M 1.81,-0.552 C 1.657,-0.9 1.586,-0.971 1.402,-0.971 c -0.185,0 -0.297,0.132 -0.297,0.368 v 2.874 c 0,1.115 -0.583,1.626 -1.842,1.626 -1.155,0 -1.963,-0.42 -1.963,-1.013 0,-0.307 0.204,-0.46 0.614,-0.46 h 0.48 V 3.253 C -1.473,3.416 -1.217,3.508 -0.9,3.508 -0.266,3.508 0,3.12 0,2.209 V 1.473 C -0.91,1.432 -1.36,1.35 -1.851,1.156 -2.567,0.859 -2.925,0.41 -2.925,-0.205 c 0,-0.788 0.593,-1.329 1.462,-1.329 0.625,0 1.095,0.255 1.484,0.797 0.143,-0.532 0.48,-0.776 1.043,-0.776 0.562,0 0.89,0.266 1.073,0.859 z" style="fill:#0079bc;fill-opacity:1;fill-rule:nonzero;stroke:none" id="path993"/>
      </g>
      <g id="g995" transform="matrix(0.35277777,0,0,-0.35277777,69.514206,279.87586)">
        <path d="m 0,0 h 0.388 l 1.371,0.409 v 0.296 c -0.634,0 -0.808,0.083 -0.808,0.349 V 5.227 H -0.818 V 4.919 L -0.665,4.9 c 0.378,-0.052 0.47,-0.123 0.47,-0.328 V 1.657 c 0,-0.634 -0.511,-1.125 -1.186,-1.125 -0.594,0 -0.921,0.347 -0.921,0.971 v 3.724 h -1.81 V 4.919 L -3.949,4.9 C -3.55,4.848 -3.447,4.777 -3.447,4.572 V 1.381 c 0,-0.941 0.573,-1.503 1.534,-1.503 0.757,0 1.309,0.317 1.811,1.063 z" style="fill:#0079bc;fill-opacity:1;fill-rule:nonzero;stroke:none" id="path997"/>
      </g>
      <g id="g999" transform="matrix(0.35277777,0,0,-0.35277777,71.621454,278.52275)">
        <path d="m 0,0 v 1.217 c -0.542,0.205 -1.023,0.296 -1.535,0.296 -1.206,0 -1.932,-0.571 -1.932,-1.523 0,-0.788 0.409,-1.217 1.524,-1.606 0.613,-0.214 0.756,-0.266 0.92,-0.358 0.328,-0.174 0.481,-0.4 0.481,-0.727 0,-0.542 -0.419,-0.859 -1.115,-0.859 -0.737,0 -1.012,0.266 -1.371,1.31 h -0.429 v -1.33 c 0.644,-0.266 1.176,-0.378 1.759,-0.378 1.238,0 2.046,0.654 2.046,1.677 0,0.767 -0.409,1.186 -1.524,1.564 -0.716,0.226 -0.747,0.246 -0.972,0.359 -0.327,0.163 -0.481,0.388 -0.481,0.695 0,0.491 0.358,0.768 0.982,0.768 0.665,0 0.921,-0.226 1.228,-1.105 z" style="fill:#0079bc;fill-opacity:1;fill-rule:nonzero;stroke:none" id="path1001"/>
      </g>
    </g>
  </g>
</svg>