<svg xmlns="http://www.w3.org/2000/svg" xmlns:xlink="http://www.w3.org/1999/xlink" version="1.1" viewBox="30.73 14.52 578.52 450.98">
    <defs>
        <clipPath id="clip_0">
            <path transform="matrix(1,0,0,-1,0,480)" d="M30.76 14.529H609.24V465.472H30.76Z"/>
        </clipPath>
    </defs>
    <g id="layer_1" data-name="Layer 1">
        <g clip-path="url(#clip_0)">
            <path transform="matrix(1,0,0,-1,364.6816,114.19339)" d="M0 0C1.913 0 3.465-1.551 3.465-3.473 3.465-5.386 1.913-6.937 0-6.937H-11.169V-15.935H-32.446C-36.738-15.935-36.738-15.935-39.522-17.089-41.03-17.727-43.115-18.589-45.365-18.589-47.614-18.589-49.7-17.727-51.243-17.072-53.992-15.935-53.992-15.935-58.283-15.935H-79.561V-6.937H-88.145C-88.989-8.342-90.333-9.247-91.85-9.247-94.082-9.247-95.952-7.265-96.383-4.628H-97.633C-98.271-4.628-98.788-4.111-98.788-3.473-98.788-2.835-98.271-2.318-97.633-2.318H-96.383C-95.952 .328-94.082 2.31-91.85 2.31-90.333 2.31-88.989 1.405-88.145 0H-79.561V12.772H-88.145C-88.989 11.367-90.333 10.462-91.85 10.462-94.082 10.462-95.952 12.453-96.383 15.09H-97.633C-98.271 15.09-98.788 15.607-98.788 16.245-98.788 16.882-98.271 17.399-97.633 17.399H-96.383C-95.952 20.037-94.082 22.019-91.85 22.019-90.333 22.019-88.989 21.114-88.145 19.709H-79.561V26.267L-74.942 28.887V-11.315H-58.283C-53.078-11.315-52.733-11.462-49.45-12.824-48.511-13.211-47.037-13.97-45.365-13.97-43.702-13.97-42.22-13.211-41.289-12.824-38.005-11.453-37.66-11.315-32.446-11.315H-15.788V28.336L-11.169 26.267V19.709H0C1.913 19.709 3.465 18.158 3.465 16.245 3.465 14.323 1.913 12.772 0 12.772H-11.169V0ZM-70.323 29.844C-66.496 29.103-62.791 31.352-55.887 31.352-51.208 31.352-47.675 29.284-47.675 25.871V-8.928C-51.63-7.291-52.561-7.075-58.283-7.075H-70.323ZM-43.056 25.75C-43.056 29.163-39.522 31.231-34.851 31.231-27.939 31.231-24.242 28.982-20.407 29.723V-7.196H-32.446C-38.169-7.196-39.1-7.412-43.056-9.058ZM23.742 61.937C17.296 48.39 7.265 39.599-15.797 35.954-12.143 59.016-3.361 69.047 10.195 75.493V75.51H-100.925V75.493C-87.369 69.047-78.587 59.016-74.933 35.954-98.003 39.599-108.026 48.39-114.472 61.937H-114.498V-49.174H-114.472C-108.026-35.626-98.003-26.836-74.933-23.182-78.587-46.252-87.369-56.284-100.925-62.73V-62.748H10.195V-62.73C-3.361-56.284-12.143-46.252-15.797-23.182 7.265-26.836 17.296-35.626 23.742-49.174H23.769V61.937ZM-91.85 0C-92.815 0-93.686-1-94.013-2.318H-89.679C-90.015-1-90.885 0-91.85 0M-91.85-6.937C-90.885-6.937-90.015-5.946-89.679-4.628H-94.013C-93.686-5.946-92.815-6.937-91.85-6.937M-91.85 12.772C-90.885 12.772-90.015 13.771-89.679 15.09H-94.013C-93.686 13.771-92.815 12.772-91.85 12.772M-91.85 19.709C-92.815 19.709-93.686 18.718-94.013 17.399H-89.679C-90.015 18.718-90.885 19.709-91.85 19.709M47.916 99.658H43.297-134.026-138.646V95.039-14.996C-138.646-60.024-99.968-104.717-46.667-121.263L-45.296-121.686-43.926-121.263C9.29-104.7 47.916-60.007 47.916-14.996V95.039ZM43.297 95.039V-14.996C43.297-57.456 6.257-100.804-45.296-116.851-96.987-100.804-134.026-57.456-134.026-14.996V95.039H43.297M-286.745-148.841C-286.745-148.384-287.228-147.772-287.719-147.772H-332.36C-332.86-147.772-333.334-148.384-333.334-148.841L-333.92-162.646H-331.326L-331.3-162.061C-331.11-158.105-329.844-153.391-324.845-153.391H-315.236V-196.782C-315.236-199.238-317.218-201.394-319.485-201.394H-322.57V-204.177H-297.518V-201.394H-300.603C-302.861-201.394-304.852-199.238-304.852-196.773V-153.391H-295.243C-290.235-153.391-288.969-158.105-288.788-162.061L-288.762-162.646H-286.168ZM52.337-270.01C49.838-265.184 43.408-261.649 38.238-258.806L37.333-258.298C34.368-256.651 32.653-254.324 32.628-251.911 32.61-249.998 33.73-248.231 35.704-247.077 37.79-245.793 40.461-245.87 43.021-247.292 46.528-249.249 48.795-253.204 48.795-257.375V-257.987H51.303V-242.458H48.907L48.804-242.94C48.657-243.682 48.372-244.164 47.976-244.371 47.477-244.629 46.675-244.526 45.632-244.078 39.186-240.984 33.929-241.38 29.56-245.284 26.854-247.826 25.414-251.713 25.794-255.419 26.182-259.091 28.302-262.279 31.757-264.391 32.817-265.054 33.963-265.734 35.127-266.424 39.082-268.777 43.176-271.207 44.874-273.586 47.105-276.662 46.614-279.652 43.426-282.479 41.245-284.35 38.307-284.643 35.359-283.289 31.938-281.713 28.482-277.653 28.482-272.129V-271.518H25.975V-287.418H28.379L28.465-287.021C28.654-286.193 29.077-285.591 29.646-285.332 30.146-285.107 30.731-285.159 31.352-285.505 33.98-286.857 37.247-287.857 40.521-287.857 43.34-287.857 46.149-287.124 48.579-285.263 53.5-281.574 55.111-275.008 52.337-270.01M-307.075-230.444C-307.635-230.427-317.27-230.073-324.94-237.028-330.438-242.018-333.463-249.473-333.92-259.193-333.92-275.801-322.639-287.857-307.092-287.857-291.545-287.857-280.265-275.801-280.265-259.193-280.265-242.492-291.287-230.677-307.075-230.444M-307.101-283.333C-307.17-283.341-307.239-283.341-307.308-283.341-310.565-283.341-313.582-282.057-316.063-279.627-320.373-275.396-322.863-267.949-322.88-259.193-322.906-253.722-321.812-235.813-307.118-235.055-301.353-235.356-291.614-238.855-291.295-258.789-291.295-273.465-297.638-283.333-307.101-283.333M-117.256-272.854V-247.275C-117.256-245.724-116.463-244.87-115.033-244.87H-113.042V-242.449H-126.175V-244.87H-124.383C-122.883-244.87-121.961-245.793-121.961-247.275V-272.854C-121.961-279.739-128.02-283.341-134.009-283.341-139.852-283.341-143.929-278.8-143.929-272.302V-248.473C-143.929-246.62-142.403-244.87-140.792-244.87H-139.896V-242.449H-156.433V-244.259L-156.338-244.87H-155.727C-153.822-244.87-152.486-246.767-152.486-248.473V-272.034C-152.486-281.351-145.109-287.857-134.552-287.857-124.21-287.857-117.256-281.824-117.256-272.854M-162.19-300.224H-161.578V-297.569L-162.147-297.535C-170.437-297.026-176.694-291.52-179.219-286.4-168.429-282.583-161.759-272.362-161.759-259.564-162.104-236.562-179.667-230.453-188.906-230.436H-188.914C-204.427-230.557-215.69-242.647-215.69-259.185-215.69-273.638-207.107-284.996-194.3-287.529-186.07-295.949-175.263-300.224-162.19-300.224M-204.478-259.193C-204.401-249.792-202.186-242.94-197.877-238.855-194.033-235.201-189.707-235.046-189.026-235.046H-188.932-188.906C-180.977-235.046-172.979-242.51-172.979-259.185-172.979-271.198-177.832-283.324-188.682-283.324-198.282-283.324-204.478-273.853-204.478-259.193M-31.017-274.861C-32.835-280.609-35.73-283.057-40.711-283.057H-51.716C-52.509-283.057-53.302-282.488-53.302-281.376V-265.855H-41.349C-39.53-265.855-38.574-267.674-38.574-269.466V-270.259H-36.247V-256.936H-38.574V-257.823C-38.574-259.513-39.444-261.34-41.349-261.34H-53.302V-246.697H-40.35C-37.169-246.697-35.049-249.18-34.816-253.179L-34.782-253.756H-32.541L-33.36-242.449H-65.893V-244.87H-65.091C-62.791-244.87-61.679-246.198-61.679-248.93V-281.101C-61.679-283.815-62.756-285.082-65.091-285.082H-65.893V-287.409H-32.473L-28.318-274.438H-30.887ZM180.727-244.87H181.339C183.02-244.87 184.761-245.87 184.761-247.551V-270.94L160.354-242.664 160.173-242.449H148.091V-244.87H148.702C150.486-244.87 151.435-245.164 152.012-245.956L152.676-246.663C153.408-247.447 154.046-248.128 154.968-249.24V-282.299C154.968-284.065 153.296-284.987 151.633-284.987H150.754V-287.4H163.982V-284.987H163.189C161.483-284.987 159.76-284.151 159.76-282.299V-254.979L187.466-287.185 187.656-287.4H189.466V-247.551C189.466-245.793 191.095-244.87 192.706-244.87H193.774V-242.449H180.727ZM140.214-281.617 123.279-242.535C123.245-242.458 122.9-241.699 122.177-241.587 121.832-241.526 121.323-241.596 120.763-242.225L104.535-281.419C103.777-283.057 102.476-285.005 100.597-285.005H99.167V-287.418H112.024V-285.005H110.861C110.172-285.005 109.465-284.643 109.104-284.117 108.827-283.721 108.775-283.281 108.948-282.833L112.921-273.482H127.614L131.665-282.824C131.915-283.462 131.726-283.953 131.519-284.246 131.208-284.703 130.656-285.005 130.114-285.005H128.312V-287.418H144.756V-285.005H143.687C142.316-285.005 141.18-283.893 140.214-281.617M114.645-269.062 120.151-256.41 125.615-269.062ZM238.915-249.36C234.279-244.5 227.135-242.173 217.732-242.475H200.505V-244.896H201.479C202.909-244.896 204.814-245.327 204.814-249.051V-280.945C204.814-283.755 203.788-285.013 201.479-285.013H200.505V-287.418H221.369C234.348-287.418 244.518-277.541 244.534-264.934 244.577-264.304 245.052-255.798 238.915-249.36M236.623-264.804C236.623-276.593 229.729-283.35 217.707-283.35 216.241-283.35 215.397-283.289 214.01-282.944V-246.542C215.389-245.775 217.491-246.077 217.611-246.086 223.886-245.931 228.729-247.672 232.013-251.282 237.002-256.755 236.632-264.641 236.623-264.804M95.082-274.258 94.944-274.688C93.16-280.472 90.178-283.057 85.266-283.057H75.097C74.261-283.057 73.416-281.971 73.416-280.92V-249.016C73.416-246.146 74.502-244.854 76.933-244.854H77.82V-242.449H60.825V-244.854H61.799C64.049-244.854 65.143-246.215 65.143-249.016V-280.92C65.143-284.557 63.238-284.979 61.799-284.979H60.825V-287.392H93.694L97.642-274.258ZM6.222-244.87H7.102C8.79-244.87 10.531-245.87 10.531-247.56V-270.948L-13.979-242.664-14.159-242.449H-26.225V-244.87H-25.612C-23.769-244.87-22.795-245.164-22.217-245.956L-21.562-246.654C-20.83-247.438-20.184-248.128-19.27-249.24V-282.299C-19.27-284.151-20.993-284.987-22.604-284.987H-23.57V-287.4H-10.247V-284.987H-11.135C-12.798-284.987-14.461-284.151-14.461-282.299V-254.979L13.246-287.185 13.427-287.4H15.228V-247.56C15.228-245.81 16.899-244.87 18.468-244.87H19.442V-242.449H6.222ZM-106.759-285.073H-107.647V-287.4H-74.045L-70.09-274.438H-72.555L-72.692-274.861C-74.477-280.531-77.458-283.057-82.371-283.057H-93.281C-94.168-283.057-95.056-282.479-95.056-281.376V-265.855H-82.922C-81.302-265.855-80.328-267.691-80.328-269.458V-270.25H-78.001V-256.936H-80.328V-257.823C-80.328-259.521-81.233-261.331-82.922-261.331H-95.056V-246.697H-82.104C-78.794-246.697-76.64-249.18-76.476-253.17L-76.458-253.756H-74.201L-75.037-242.449H-107.647V-244.87H-106.759C-104.389-244.87-103.329-246.12-103.329-248.93V-281.101C-103.329-283.85-104.389-285.073-106.759-285.073M-239.76-242.466H-274.396V-244.879H-273.508C-271.147-244.879-270.087-246.163-270.087-249.033V-281.118C-270.087-283.867-271.147-285.091-273.508-285.091H-274.396V-287.418H-257.41V-285.091H-258.479C-260.805-285.091-261.805-283.936-261.805-281.213V-265.873H-249.671C-247.292-265.873-247.171-268.88-247.171-269.475V-270.276H-244.75V-256.953H-247.171V-257.841C-247.171-258.427-247.292-261.349-249.671-261.349H-261.805V-246.715H-246.75C-243.681-246.715-241.449-249.326-241.208-253.204L-241.173-253.773H-238.941ZM70.106-201.764H69.228C66.858-201.764 65.798-200.54 65.798-197.791V-184.011H67.729L83.043-204.177H93.858V-201.764H92.962C91.747-201.764 90.772-200.608 89.738-199.385L77.019-182.796C82.784-180.796 86.559-176.332 86.516-171.48 86.48-167.844 85.438-165.111 83.327-163.129 80.018-160.026 74.063-158.752 65.187-159.234H53.13V-161.647H54.207C56.438-161.647 57.524-162.939 57.524-165.62V-197.791C57.524-200.54 56.499-201.764 54.207-201.764H53.13V-204.177H70.106ZM65.798-163.802C67.401-163.146 68.78-163.293 68.857-163.293 73.864-163.293 77.785-166.896 77.785-171.48 77.785-176.203 73.778-180.038 68.857-180.038H65.798ZM196.687-159.226H160.569C160.147-159.226 159.69-159.683 159.69-160.087L159.294-170.808H161.518L161.552-170.23C161.802-165.861 163.396-163.741 166.438-163.741H174.617V-198.058C174.617-200.652 173.54-201.764 171.015-201.764H170.222V-204.177H187.026V-201.764H186.233C183.77-201.764 182.812-200.721 182.812-198.058V-163.741H190.904C192.81-163.741 195.369-164.413 195.705-170.23L195.748-170.808H198.049L197.566-160.104C197.566-159.683 197.101-159.226 196.687-159.226M-42.909-201.764H-43.71C-46.072-201.764-47.132-200.531-47.132-197.791V-165.611C-47.132-162.896-46.037-161.639-43.71-161.639H-42.909V-159.226H-59.714V-161.639H-58.93C-56.43-161.639-55.319-162.862-55.319-165.611V-197.791C-55.319-200.574-56.396-201.764-58.93-201.764H-59.714V-204.177H-42.909ZM-163.552-155.166V-185.045C-163.552-196.739-154.365-204.909-141.214-204.909-128.442-204.909-119.522-197.118-119.522-185.958V-153.882C-119.522-151.668-118.523-150.642-116.368-150.642H-113.929V-147.772H-131.01V-150.642H-128.287C-126.313-150.642-125.236-151.788-125.236-153.882V-185.958C-125.236-195.119-133.087-199.29-140.395-199.29-147.962-199.29-153.253-193.542-153.253-185.32V-155.166C-153.253-152.753-151.228-150.642-148.918-150.642H-147.574V-147.772H-169.136V-150.642H-167.886C-165.292-150.642-163.552-152.978-163.552-155.166M-33.472-164.931-16.797-203.521-16.71-203.659C-16.392-204.056-15.883-204.306-15.383-204.306-15.34-204.306-15.306-204.306-15.271-204.298-14.797-204.263-14.393-204.013-14.15-203.591L1-165.138C2.224-162.587 3.171-161.639 4.481-161.639H5.093V-159.226H-6.214V-161.639H-4.955C-4.456-161.639-3.93-161.914-3.62-162.354-3.413-162.638-3.215-163.121-3.421-163.732L-13.694-189.328-24.932-163.741C-25.164-163.121-24.983-162.646-24.785-162.362-24.458-161.889-23.924-161.639-23.57-161.639H-21.502V-159.226H-37.557V-161.639H-36.945C-35.584-161.639-34.541-162.63-33.472-164.931M-106.639-162.733C-106.079-163.354-105.622-163.888-105.104-164.5-104.743-164.922-104.355-165.388-103.872-165.938V-199.075C-103.872-200.858-105.544-201.678-107.113-201.678H-108.172V-204.177H-94.763V-201.678H-95.651C-97.349-201.678-99.072-200.781-99.072-199.075V-171.756L-71.271-203.961-71.089-204.177H-69.271V-164.336C-69.271-162.569-67.599-161.647-65.953-161.647H-65.065V-159.234H-78.38V-161.647H-77.407C-75.847-161.647-74.166-162.483-74.166-164.336V-187.622L-98.667-159.234H-110.741V-161.647H-110.138C-108.422-161.647-107.414-161.811-106.639-162.733M205.952-164.931 219.232-185.226V-197.782C219.232-200.669 218.241-201.85 215.811-201.85H214.923V-204.263H232.099V-201.85H231.211C228.677-201.85 227.695-200.764 227.695-197.963V-184.933L239.519-164.741C240.751-162.802 242.328-161.725 243.948-161.725H244.552V-159.226H232.615V-161.725H234.322C234.624-161.725 234.934-161.957 235.149-162.328 235.348-162.673 235.477-163.259 235.184-163.741L225.678-179.935 215.259-164.052C214.862-163.275 215.104-162.682 215.276-162.396 215.535-161.992 215.957-161.725 216.362-161.725H217.982V-159.226H201.264V-161.725H201.875C202.97-161.725 204.418-162.087 205.952-164.931M-192.947-191.215H-195.516L-195.645-191.654C-197.299-197.239-200.29-199.738-205.323-199.738H-216.336C-217.233-199.738-217.914-199.058-217.914-198.152V-182.632H-205.883C-204.159-182.632-203.367-184.45-203.367-186.147V-187.035H-200.867V-173.703H-203.367V-174.591C-203.367-176.048-204.151-178.107-205.883-178.107H-217.914V-163.379H-204.961C-201.79-163.379-199.669-165.861-199.437-169.86L-199.394-170.437H-197.067L-197.886-159.226H-230.599V-161.639H-229.712C-227.376-161.639-226.291-162.896-226.291-165.611V-197.782C-226.291-200.531-227.351-201.764-229.712-201.764H-230.599V-204.177H-196.998ZM-263.227-201.755H-264.123C-266.424-201.755-267.45-200.531-267.45-197.782V-183.364H-249.973V-197.782C-249.973-200.565-251.024-201.755-253.48-201.755H-254.368V-204.177H-237.295V-201.755H-238.355C-240.691-201.755-241.69-200.565-241.69-197.782V-165.611C-241.69-162.862-240.665-161.639-238.355-161.639H-237.295V-159.234H-254.368V-161.639H-253.48C-251.084-161.639-249.973-162.896-249.973-165.611V-179.029H-267.45V-165.611C-267.45-162.939-266.355-161.639-264.123-161.639H-263.227V-159.234H-280.126V-161.639H-279.248C-276.843-161.639-275.913-162.75-275.913-165.611V-197.782C-275.913-200.678-276.817-201.755-279.248-201.755H-280.126V-204.177H-263.227ZM152.322-201.755H151.435C149.073-201.755 148.014-200.531 148.014-197.782V-165.611C148.014-162.896 149.1-161.639 151.435-161.639H152.322V-159.226H135.336V-161.639H136.404C138.706-161.639 139.731-162.862 139.731-165.611V-197.782C139.731-200.565 138.74-201.755 136.404-201.755H135.336V-204.168H152.322ZM48.114-191.215H45.537L45.399-191.646C43.633-197.239 40.65-199.738 35.722-199.738H24.716C23.812-199.738 23.131-199.058 23.131-198.152V-182.632H35.084C37.135-182.632 37.678-184.838 37.678-186.147V-187.035H40.177V-173.703H37.678V-174.591C37.678-175.953 36.979-178.107 35.084-178.107H23.131V-163.379H36.092C39.212-163.379 41.384-165.922 41.616-169.869L41.65-170.437H43.994L43.063-159.226H10.445V-161.639H11.341C13.643-161.639 14.668-162.862 14.668-165.611V-197.782C14.668-200.574 13.677-201.764 11.341-201.764H10.445V-204.177H43.96ZM105.63-180.985C106.639-181.615 107.716-182.253 108.811-182.916 112.662-185.217 117.023-187.828 118.756-190.173 121.073-193.301 120.591-196.214 117.281-199.066 115.127-200.954 112.223-201.281 109.31-199.971 105.889-198.42 102.441-194.335 102.441-188.707V-188.104H99.934V-204.177H102.295L102.416-203.729C102.657-202.884 103.148-202.255 103.769-202.005 104.251-201.807 104.777-201.867 105.303-202.178 108.216-203.737 111.292-204.513 114.188-204.513 117.281-204.513 120.177-203.625 122.443-201.858 127.33-198.29 128.977-191.577 126.201-186.596 123.607-181.692 117.092-178.021 111.206-174.979 108.354-173.367 106.682-171.084 106.612-168.731 106.552-166.767 107.638-164.913 109.56-163.672 111.758-162.396 114.498-162.535 117.092-164.025 119.833-165.611 122.763-169.041 122.763-173.954V-174.565H125.081V-159.234H122.857L122.771-159.733C122.659-160.38 122.435-160.776 122.082-160.975 121.573-161.251 120.669-161.139 119.496-160.647 112.903-157.666 107.862-158.079 103.613-161.957 100.848-164.5 99.356-168.386 99.718-172.075 100.08-175.703 102.175-178.865 105.63-180.985M-206.624-340.436H-212.691L-209.641-333.437ZM-198.161-347.622-207.805-325.362C-207.831-325.311-208.038-324.862-208.485-324.785-208.692-324.75-209.003-324.794-209.339-325.173L-218.594-347.511C-219.025-348.424-219.75-349.519-220.775-349.519H-221.663V-351.01H-214.199V-349.519H-214.932C-215.302-349.519-215.69-349.329-215.889-349.045-216.026-348.829-216.052-348.597-215.958-348.363L-213.717-343.072H-205.426L-203.151-348.347C-203.013-348.691-203.108-348.958-203.22-349.113-203.384-349.363-203.677-349.519-203.961-349.519H-205.047V-351.01H-195.567V-349.519H-196.24C-196.98-349.519-197.61-348.898-198.161-347.622M119.022-340.436H112.955L115.998-333.437ZM129.407-349.519C128.657-349.519 128.028-348.898 127.485-347.622L117.833-325.362C117.816-325.311 117.601-324.854 117.152-324.785 116.945-324.75 116.636-324.803 116.308-325.173L107.052-347.511C106.621-348.424 105.897-349.519 104.872-349.519H103.984V-351.01H111.438V-349.519H110.715C110.336-349.519 109.948-349.329 109.758-349.045 109.611-348.829 109.586-348.597 109.681-348.363L111.921-343.072H120.212L122.495-348.347C122.634-348.691 122.53-348.958 122.427-349.113 122.254-349.363 121.961-349.519 121.677-349.519H120.591V-351.01H130.07V-349.519ZM3.473-340.436H-2.594L.457-333.437ZM11.936-347.622 2.292-325.362C2.267-325.311 2.06-324.862 1.611-324.785 1.396-324.75 1.095-324.803 .759-325.173L-8.497-347.511C-8.929-348.424-9.652-349.519-10.678-349.519H-11.565V-351.01H-4.11V-349.519H-4.835C-5.205-349.519-5.593-349.329-5.791-349.045-5.929-348.829-5.964-348.597-5.869-348.363L-3.628-343.072H4.662L6.946-348.347C7.084-348.699 6.98-348.958 6.877-349.113 6.705-349.363 6.412-349.519 6.127-349.519H5.05V-351.01H14.529V-349.519H13.857C13.116-349.519 12.487-348.898 11.936-347.622M-124.512-334.601-124.995-334.334C-126.667-333.403-127.632-332.084-127.649-330.74-127.658-329.663-127.038-328.681-125.926-328.034-124.753-327.318-123.254-327.361-121.806-328.172-119.833-329.274-118.549-331.507-118.549-333.851V-334.256H-117.015V-325.293H-118.471L-118.549-325.621C-118.635-326.026-118.781-326.284-118.997-326.396-119.264-326.534-119.704-326.475-120.272-326.232-123.969-324.457-126.985-324.682-129.502-326.922-131.053-328.379-131.881-330.61-131.665-332.739-131.441-334.851-130.226-336.687-128.244-337.901-127.615-338.289-126.942-338.694-126.253-339.1-124.03-340.418-121.729-341.779-120.781-343.115-119.531-344.848-119.807-346.52-121.599-348.105-122.814-349.156-124.469-349.32-126.132-348.562-128.063-347.674-130.011-345.373-130.011-342.254V-341.849H-131.562V-351.069H-130.097L-130.019-350.751C-129.916-350.294-129.692-349.976-129.381-349.838-129.114-349.717-128.804-349.742-128.468-349.932-126.968-350.708-125.098-351.285-123.22-351.285-121.599-351.285-119.979-350.863-118.583-349.785-115.765-347.674-114.834-343.899-116.429-341.021-117.876-338.255-121.556-336.229-124.512-334.601M53.483-343.71C52.475-346.977 50.794-348.433 48.028-348.433H42.228C41.797-348.433 41.332-347.838 41.332-347.27V-329.103C41.332-327.482 41.918-326.793 43.271-326.793H43.84V-325.293H34.05V-326.793H34.661C35.118-326.793 36.506-326.793 36.506-329.103V-347.27C36.506-349.286 35.454-349.519 34.661-349.519H34.05V-351.01H52.862L55.146-343.417H53.569ZM-158.82-326.793H-157.734C-156.907-326.793-156.416-327.284-156.416-328.103V-342.676C-156.416-346.554-159.837-348.579-163.215-348.579-166.507-348.579-168.809-346.02-168.809-342.357V-328.783C-168.809-327.775-167.947-326.793-167.076-326.793H-166.516V-325.293H-176.048V-326.379L-175.987-326.793H-175.583C-174.54-326.793-173.807-327.845-173.807-328.783V-342.211C-173.807-347.554-169.576-351.276-163.526-351.276-157.597-351.276-153.615-347.82-153.615-342.676V-328.103C-153.615-327.508-153.399-326.793-152.4-326.793H-151.219V-325.293H-158.82ZM-74.761-325.293H-95.34C-95.59-325.293-95.909-325.561-95.909-325.845L-96.133-332.007H-94.746L-94.72-331.628C-94.574-329.172-93.677-327.991-91.988-327.991H-87.386V-347.467C-87.386-348.898-87.98-349.51-89.377-349.51H-89.894V-351.01H-80.199V-349.51H-80.716C-82.095-349.51-82.603-348.958-82.603-347.467V-327.991H-78.053C-76.907-327.991-75.571-328.404-75.373-331.628L-75.355-332.007H-73.917L-74.201-325.862C-74.201-325.578-74.485-325.293-74.761-325.293M74.666-326.793H75.338C76.2-326.793 77.183-327.034 77.183-328.999V-347.32C77.183-348.863 76.631-349.519 75.338-349.519H74.666V-351.01H84.465V-349.519H83.904C82.577-349.519 82.017-348.863 82.017-347.32V-328.999C82.017-327.017 83.095-326.793 83.904-326.793H84.465V-325.293H74.666ZM-40.358-332.334C-40.358-334.988-42.607-337.143-45.382-337.143H-47.063V-327.991C-46.184-327.646-45.434-327.732-45.382-327.732-42.564-327.732-40.358-329.749-40.358-332.334M-33.438-348.183-40.634-338.807C-37.376-337.643-35.239-335.092-35.256-332.325-35.282-330.24-35.885-328.672-37.101-327.534-38.996-325.75-42.4-325.026-47.468-325.293H-54.396V-326.784H-53.733C-52.5-326.784-51.897-327.508-51.897-328.999V-347.312C-51.897-349.269-52.88-349.519-53.733-349.519H-54.396V-351.01H-44.606V-349.519H-45.175C-46.494-349.519-47.063-348.863-47.063-347.312V-339.53H-46.054L-37.333-351.01H-31.085V-349.519H-31.646C-32.317-349.519-32.86-348.872-33.438-348.183" fill="#50247a"/>
        </g>
    </g>
</svg>