<?xml version="1.0" standalone="no"?>
<!DOCTYPE svg PUBLIC "-//W3C//DTD SVG 20010904//EN"
 "http://www.w3.org/TR/2001/REC-SVG-20010904/DTD/svg10.dtd">
<svg version="1.0" xmlns="http://www.w3.org/2000/svg"
 width="512.000000pt" height="512.000000pt" viewBox="0 0 512.000000 512.000000"
 preserveAspectRatio="xMidYMid meet">
<metadata>
Created by potrace 1.14, written by Peter Selinger 2001-2017
</metadata>
<g transform="translate(0.000000,512.000000) scale(0.100000,-0.100000)"
fill="#000000" stroke="none">
<path d="M1403 4440 c-37 -22 -54 -50 -63 -100 l-5 -35 -192 -5 c-218 -6 -230
-10 -270 -91 -22 -43 -22 -52 -23 -425 0 -456 13 -578 81 -771 60 -171 141
-302 271 -438 178 -187 401 -310 641 -355 37 -7 67 -17 67 -24 0 -6 1 -229 3
-496 4 -448 6 -492 25 -580 45 -203 135 -372 276 -518 163 -169 372 -280 586
-312 41 -6 98 -15 127 -19 69 -10 290 20 390 55 353 120 601 384 705 753 20
70 21 104 25 468 l4 392 92 44 c203 99 319 282 320 507 1 104 -13 158 -66 265
-38 77 -152 190 -233 232 -178 94 -403 83 -571 -27 -282 -185 -336 -592 -111
-844 57 -64 146 -126 218 -152 l51 -18 -3 -376 c-4 -360 -5 -378 -27 -445 -45
-138 -97 -222 -201 -326 -81 -81 -109 -102 -190 -142 -132 -64 -200 -80 -345
-80 -144 0 -214 16 -340 78 -191 95 -318 240 -392 450 l-28 80 -3 510 -3 511
98 18 c436 81 805 415 932 844 46 157 51 218 51 691 l0 438 -23 34 c-41 62
-69 69 -273 69 l-181 0 -6 35 c-3 19 -15 49 -27 65 -63 88 -210 78 -255 -17
-22 -45 -22 -421 0 -466 45 -95 192 -105 255 -17 12 16 24 46 27 65 l6 35 89
0 89 0 -3 -372 c-4 -350 -6 -377 -26 -446 -99 -326 -336 -561 -659 -654 -66
-19 -102 -23 -233 -23 -131 0 -167 4 -235 23 -180 51 -350 162 -473 309 -68
81 -112 157 -153 261 -51 133 -59 209 -59 573 l0 329 85 0 c84 0 85 0 90 -27
20 -92 67 -133 154 -133 50 0 57 3 97 44 l44 43 0 218 c0 240 -2 251 -64 293
-42 29 -118 30 -163 2z m2588 -1704 c182 -77 230 -295 94 -431 -128 -127 -331
-90 -422 78 -26 48 -24 170 4 222 62 117 213 178 324 131z"/>
</g>
</svg>
